<?xml version="1.0" encoding="iso-8859-1"?>
<svg fill="#FFC750" height="800px" width="800px" version="1.1" id="Layer_1" xmlns="http://www.w3.org/2000/svg" xmlns:xlink="http://www.w3.org/1999/xlink"
	 viewBox="0 0 503.936 503.936" xml:space="preserve">
<g>
	<g>
		<path d="M369.476,16.952c-53.915,0-94.772,22.867-117.508,64.157c-21.424-38.908-58.943-61.448-108.311-63.921
			c-0.176-0.009-0.354-0.013-0.53-0.021c-1.31-0.062-2.622-0.118-3.948-0.152c-1.564-0.041-3.136-0.063-4.718-0.063
			c-1.393,0-2.773,0.024-4.147,0.059c-0.32,0.008-0.639,0.017-0.958,0.027c-2.819,0.089-5.597,0.251-8.335,0.483
			c-0.194,0.017-0.388,0.033-0.582,0.05c-2.917,0.259-5.787,0.599-8.61,1.018c-0.012,0.002-0.024,0.003-0.036,0.005
			C-3.048,35.641-39.553,182.147,50.448,282.134c14.158,15.73,52.535,55.694,106.701,111.389c0.692,0.712,1.393,1.431,2.087,2.145
			c0.926,0.952,1.846,1.898,2.782,2.861c0.002,0.002,0.004,0.003,0.006,0.006c17.873,18.368,36.35,37.303,54.379,55.74
			c13.146,13.443,25.842,26.401,29.58,30.202c3.289,3.345,8.681,3.345,11.97,0c3.738-3.801,16.434-16.759,29.58-30.202
			c19.671-20.115,39.885-40.834,59.255-60.751c54.165-55.695,92.542-95.659,106.701-111.389
			C549.171,175.835,501.875,16.952,369.476,16.952z M168.034,210.001c-4.636,0-8.393,3.758-8.393,8.393V372
			c-19.188-19.754-35.971-37.101-50.361-52.067V218.394c0-4.636-3.758-8.393-8.393-8.393H26.361
			c-5.879-16.591-9.029-33.614-9.407-50.361h83.932c4.636,0,8.393-3.758,8.393-8.393V36.101c6.237-1.208,12.747-1.974,19.529-2.246
			c0.217-0.009,0.436-0.015,0.654-0.022c1.651-0.058,3.315-0.095,4.997-0.095c1.431,0,2.845,0.027,4.253,0.062
			c0.524,0.014,1.048,0.028,1.57,0.047c0.775,0.027,1.543,0.065,2.311,0.103c5.841,0.295,11.524,0.902,17.046,1.83v115.467
			c0,4.636,3.758,8.393,8.393,8.393h318.948c-0.378,16.747-3.528,33.77-9.407,50.361H168.034z M244.155,103.953
			c2.788,7.102,12.838,7.102,15.626,0c17.764-45.257,55.693-70.214,109.695-70.214c68.724,0,111.467,49.077,117.103,109.115H176.427
			V39.658C208.349,49.53,231.428,71.53,244.155,103.953z M92.493,40.659v102.194H17.357C21.736,96.205,48.526,56.193,92.493,40.659z
			 M33.175,226.788h59.318v75.634c-13.672-14.324-23.75-25.055-29.568-31.518C50.358,256.943,40.508,242.048,33.175,226.788z
			 M441.012,270.904c-13.946,15.494-52.297,55.431-106.258,110.916c-19.359,19.905-39.561,40.612-59.223,60.718
			c-8.966,9.168-17.722,18.111-23.563,24.069c-5.84-5.958-14.597-14.901-23.563-24.069c-17.221-17.61-34.857-35.682-51.978-53.272
			V226.788h294.335C463.428,242.048,453.578,256.943,441.012,270.904z"/>
	</g>
</g>
</svg>