<?xml version="1.0" encoding="iso-8859-1"?>
<svg fill="#FFC750" version="1.1" id="Layer_1" xmlns="http://www.w3.org/2000/svg" xmlns:xlink="http://www.w3.org/1999/xlink" 
	 viewBox="0 0 512 512" xml:space="preserve">
<g>
	<g>
		<g>
			<path d="M508.357,274.548c-3.944-5.825-10.498-9.304-17.534-9.304H427.34v-34.427c0-12.284-9.994-22.278-22.278-22.278h-20.795
				v-29.558c0-12.284-9.994-22.278-22.279-22.278h-68.616V89.041c0-7.298-5.937-13.235-13.234-13.235h-61.742
				c-7.298,0-13.235,5.937-13.235,13.235v67.663h-46.487V89.041c0-7.298-5.937-13.235-13.234-13.235H83.7
				c-7.298,0-13.235,5.937-13.235,13.235v67.663H50.399c-12.283,0-22.278,9.994-22.278,22.278v86.261h-7.739
				c-5.867,0-11.451,2.529-15.321,6.94c-3.87,4.411-5.65,10.276-4.889,16.093l16.123,122.975
				c1.864,14.218,14.084,24.941,28.424,24.941h385.201c14.45,0,27.254-8.669,32.621-22.085l47.939-119.824
				C513.096,287.752,512.301,280.374,508.357,274.548z M221.097,91.742h56.343v7.654h-56.343V91.742z M221.097,115.328h56.343
				v41.376h-56.343V115.328z M86.399,91.742h56.343v7.654H86.399V91.742z M86.399,115.328h56.343v41.376H86.399V115.328z
				 M44.055,178.983c0-3.498,2.846-6.344,6.344-6.344h311.589c3.498,0,6.345,2.846,6.345,6.344v29.558H44.055V178.983z
				 M44.055,224.474h361.007c3.498,0,6.344,2.846,6.344,6.344v34.427h-69.684v-11.65c0-9.21-7.493-16.703-16.704-16.703h-19.36
				c-9.211,0-16.704,7.493-16.704,16.703v11.649H44.055V224.474z M325.788,253.595v11.649h-20.899v-11.649
				c0-0.424,0.345-0.769,0.77-0.769h19.36C325.443,252.826,325.788,253.171,325.788,253.595z M447.75,408.19
				c-2.934,7.332-9.932,12.069-17.828,12.069H44.72c-6.369,0-11.796-4.762-12.625-11.078l-2.441-18.616h425.148L447.75,408.19z
				 M495.688,288.365l-34.512,86.265H27.565l-11.593-88.425c-0.228-1.738,0.57-2.947,1.067-3.512
				c0.496-0.566,1.59-1.515,3.343-1.515h470.441c2.509,0,3.87,1.61,4.338,2.302C495.631,284.172,496.621,286.035,495.688,288.365z"
				/>
			<rect x="358.687" y="236.892" width="30.116" height="15.934"/>
			<path d="M448.578,289.212h-26.104c-7.612,0-13.805,6.193-13.805,13.805v15.153c0,7.613,6.193,13.806,13.805,13.806h26.104
				c7.612,0,13.805-6.193,13.805-13.806v-15.153C462.383,295.405,456.19,289.212,448.578,289.212z M446.449,316.042h-21.847v-10.896
				h21.847V316.042z"/>
			<polygon points="241.876,252.826 241.876,252.826 271.991,252.826 271.991,236.892 241.876,236.892 			"/>
			<path d="M382.963,289.212h-26.104c-7.612,0-13.804,6.193-13.804,13.805v15.153c0,7.613,6.192,13.806,13.804,13.806h26.104
				c7.613,0,13.806-6.193,13.806-13.806v-15.153C396.77,295.405,390.576,289.212,382.963,289.212z M380.836,316.042H358.99v-10.896
				h21.847V316.042z"/>
			<path d="M317.349,289.212h-26.104c-7.612,0-13.805,6.193-13.805,13.805v15.153c0,7.613,6.193,13.806,13.805,13.806h26.104
				c7.612,0,13.805-6.193,13.805-13.806v-15.153C331.154,295.405,324.961,289.212,317.349,289.212z M315.22,316.042h-21.847v-10.896
				h21.847V316.042z"/>
			<path d="M119.596,335.012c-3.639-2.472-8.596-1.523-11.067,2.116c-1.027,1.513-2.32,2.781-3.786,3.777v-14.952h8.002
				c4.401,0,7.967-3.567,7.967-7.967s-3.566-7.967-7.967-7.967h-8.002V307.4c0-4.4-3.566-7.967-7.967-7.967
				c-4.401,0-7.967,3.567-7.967,7.967v2.619h-8.003c-4.401,0-7.967,3.567-7.967,7.967s3.566,7.967,7.967,7.967h8.003v14.952
				c-1.467-0.996-2.761-2.265-3.787-3.777c-2.473-3.64-7.426-4.588-11.067-2.116c-3.64,2.472-4.587,7.426-2.116,11.067
				c5.619,8.277,14.942,13.219,24.938,13.219c9.994,0,19.317-4.942,24.937-13.219C124.183,342.438,123.236,337.483,119.596,335.012z
				"/>
			<rect x="183.471" y="236.892" width="30.115" height="15.934"/>
			<rect x="125.066" y="236.892" width="30.115" height="15.934"/>
			<rect x="66.66" y="236.892" width="30.116" height="15.934"/>
		</g>
	</g>
</g>
</svg>