<?xml version="1.0" encoding="iso-8859-1"?>
<svg fill="#FFC750" height="800px" width="800px" version="1.1" id="Layer_1" xmlns="http://www.w3.org/2000/svg" xmlns:xlink="http://www.w3.org/1999/xlink"
	 viewBox="0 0 503.698 503.698" xml:space="preserve">
<g>
	<g>
		<g>
			<path d="M395.364,37.814c-41.409,0-74.17,20.636-93.166,55.356c-18.99-34.718-51.751-55.356-93.16-55.356
				c-75.031,0-119.666,67.977-105.834,144.045c-5.31-0.892-10.848-1.357-16.601-1.357c-85.179,0-115.575,101.416-54.482,168.838
				c12.329,13.603,52.597,54.924,103.435,106.572c13.083,13.296,34.83,13.296,47.914-0.001
				c27.573-28.012,52.003-52.953,70.572-72.101c4.485,4.821,9.07,9.744,13.952,14.984c2.668,2.863,4.466,4.792,8.549,9.171
				c3.872,4.153,3.872,4.153,7.285,7.813c10.075,10.776,26.675,10.776,36.733,0.005c67.499-72.318,125.877-135.467,142.831-155.222
				C539.941,171.358,502.042,37.814,395.364,37.814z M171.507,444.137c-6.508,6.614-17.478,6.614-23.985,0.001
				c-50.549-51.354-90.871-92.731-102.961-106.07C-7.547,280.562,17.411,197.29,86.604,197.29c8.59,0,16.537,1.21,23.779,3.523
				c0.422,0.233,0.859,0.445,1.324,0.604c17.295,5.945,30.448,18.3,38.329,35.552c0.097,0.213,0.195,0.425,0.29,0.639
				c0.477,1.068,0.939,2.15,1.375,3.256c1.398,3.54,4.602,5.31,7.806,5.31c0.356,0,0.71-0.03,1.063-0.073
				c0.044-0.005,0.089-0.003,0.133-0.009c2.779-0.386,5.385-2.127,6.61-5.224c10.897-27.553,33.749-43.577,65.108-43.577
				c8.649,0,16.607,1.301,23.81,3.69c48.351,16.04,62.649,81.117,23.521,130.808c-1.671,2.122-3.429,4.22-5.296,6.281
				c-0.117,0.129-0.25,0.274-0.373,0.41c-0.227,0.249-0.453,0.498-0.698,0.765c-0.134,0.146-0.276,0.301-0.416,0.453
				c-0.265,0.288-0.539,0.585-0.823,0.892c-0.17,0.184-0.339,0.366-0.516,0.557c-0.216,0.233-0.446,0.479-0.672,0.722
				c-5.02,5.389-12.694,13.42-22.834,23.913c-0.027,0.028-0.049,0.058-0.075,0.086C228.952,385.625,202.125,413.031,171.507,444.137
				z M450.653,249.629c-16.718,19.48-75.168,82.707-142.363,154.699c-3.421,3.664-8.761,3.664-12.191-0.005
				c-3.406-3.653-3.406-3.653-7.277-7.805c-4.082-4.378-5.879-6.306-8.546-9.168c-5.099-5.472-9.876-10.602-14.551-15.627
				c6.454-6.704,11.815-12.326,15.904-16.688c0.285-0.304,0.566-0.604,0.838-0.894c0.156-0.167,0.311-0.333,0.463-0.496
				c0.956-1.025,1.825-1.963,2.606-2.814c0.09-0.098,0.177-0.193,0.264-0.289c0.29-0.317,0.568-0.622,0.833-0.913
				c0.085-0.093,0.182-0.199,0.264-0.289c1.31-1.445,2.562-2.911,3.788-4.387c47.032-56.585,32.743-134.196-22.487-157.539
				c-1.915-0.809-3.885-1.544-5.897-2.22c-0.194-0.065-0.381-0.138-0.576-0.202c-8.863-2.905-18.655-4.489-29.302-4.489c0,0,0,0,0,0
				c0,0,0,0,0,0c-0.26,0-0.516,0.009-0.775,0.011c-0.74,0.005-1.48,0.01-2.212,0.031c-1.806,0.05-3.586,0.153-5.348,0.294
				c-0.168,0.014-0.339,0.022-0.507,0.036c-27.918,2.383-50.175,16.131-64.069,38.299c-9.248-14.761-22.213-25.781-38.083-32.207
				c-16.889-69.888,21.548-132.366,87.61-132.366c40.559,0,70.814,22.977,85.297,61.695c2.719,7.27,13.002,7.271,15.722,0.001
				c14.492-38.72,44.748-61.696,85.306-61.696C485.94,54.601,518.763,170.259,450.653,249.629z"/>
			<path d="M461.384,109.85c-10.978-23.882-32.665-38.462-66.02-38.462c-4.636,0-8.393,3.758-8.393,8.393s3.758,8.393,8.393,8.393
				c26.649,0,42.47,10.636,50.767,28.686c1.936,4.212,6.92,6.057,11.132,4.121C461.475,119.046,463.32,114.062,461.384,109.85z"/>
		</g>
	</g>
</g>
</svg>