<?xml version="1.0" ?>
<svg fill="#FFC750" width="800px" height="800px" viewBox="0 0 100 100" version="1.1" xml:space="preserve" xmlns="http://www.w3.org/2000/svg" xmlns:xlink="http://www.w3.org/1999/xlink">
<g id="backpack"/>
<g id="camping"/>
<g id="transportation"/>
<g id="navigation"/>
<g id="hotel"/>
<g id="money"/>
<g id="signpost"/>
<g id="ticket"/>
<g id="schedule"/>
<g id="beach">
<g>
<path d="M50,71C24.2,71,4,78.5,4,88c0,0.6,0.4,1,1,1h90c0.6,0,1-0.4,1-1C96,78.5,75.8,71,50,71z M6.1,87c1.6-7.7,21-14,43.9-14    s42.3,6.3,43.9,14H6.1z"/>
<path d="M5,42c2.6,0,3.9,0.5,5.3,0.9c1.5,0.5,3,1.1,6,1.1s4.5-0.5,6-1.1c1.4-0.5,2.6-0.9,5.3-0.9c2.6,0,3.9,0.5,5.3,0.9    c1.5,0.5,3,1.1,6,1.1c3,0,4.5-0.5,6-1.1c1.4-0.5,2.6-0.9,5.3-0.9s3.9,0.5,5.3,0.9c1.5,0.5,3,1.1,6,1.1c3,0,4.5-0.5,6-1.1    c1.4-0.5,2.6-0.9,5.3-0.9c2.6,0,3.9,0.5,5.3,0.9c1.5,0.5,3,1.1,6,1.1s4.5-0.5,6-1.1c1.4-0.5,2.7-0.9,5.3-0.9c0.6,0,1-0.4,1-1    s-0.4-1-1-1c-3,0-4.5,0.5-6,1.1c-1.4,0.5-2.7,0.9-5.3,0.9s-3.9-0.5-5.3-0.9c-1.5-0.5-3-1.1-6-1.1c-0.7,0-1.3,0-1.9,0.1    c0.3-1.3,0.4-2.7,0.4-4.1c0-11.6-9.4-21-21-21s-21,9.4-21,21c0,1.4,0.1,2.7,0.4,4.1C28.8,40,28.2,40,27.5,40c-3,0-4.5,0.5-6,1.1    c-1.4,0.5-2.6,0.9-5.3,0.9s-3.9-0.5-5.3-0.9C9.5,40.5,8,40,5,40c-0.6,0-1,0.4-1,1S4.4,42,5,42z M31,36c0-10.5,8.5-19,19-19    s19,8.5,19,19c0,1.5-0.2,3-0.5,4.4c-0.7,0.2-1.3,0.4-1.9,0.6c-1.4,0.5-2.6,0.9-5.3,0.9c-2.6,0-3.9-0.5-5.3-0.9    c-1.5-0.5-3-1.1-6-1.1s-4.5,0.5-6,1.1c-1.4,0.5-2.6,0.9-5.3,0.9c-2.6,0-3.9-0.5-5.3-0.9c-0.6-0.2-1.2-0.4-1.9-0.6    C31.2,39,31,37.5,31,36z"/>
<path d="M82,52c0.6,0,1-0.4,1-1s-0.4-1-1-1c-2.5,0-3.7-0.4-5-0.9c-1.4-0.5-2.8-1-5.7-1c-2.8,0-4.3,0.5-5.7,1    c-1.3,0.5-2.5,0.9-5,0.9c-2.5,0-3.7-0.4-5-0.9c-1.4-0.5-2.8-1-5.7-1s-4.3,0.5-5.7,1c-1.3,0.5-2.5,0.9-5,0.9c-2.5,0-3.7-0.4-5-0.9    c-1.4-0.5-2.8-1-5.7-1s-4.3,0.5-5.7,1c-1.3,0.5-2.5,0.9-5,0.9c-0.6,0-1,0.4-1,1s0.4,1,1,1c2.8,0,4.3-0.5,5.7-1    c1.3-0.5,2.5-0.9,5-0.9s3.7,0.4,5,0.9c1.4,0.5,2.8,1,5.7,1c2.8,0,4.3-0.5,5.7-1c1.3-0.5,2.5-0.9,5-0.9s3.7,0.4,5,0.9    c1.4,0.5,2.8,1,5.7,1c2.8,0,4.3-0.5,5.7-1c1.3-0.5,2.5-0.9,5-0.9c2.5,0,3.7,0.4,5,0.9C77.7,51.4,79.2,52,82,52z"/>
<path d="M73,60c0.6,0,1-0.4,1-1s-0.4-1-1-1c-1.7,0-2.5-0.4-3.4-0.9c-1-0.5-2.1-1.1-4.3-1.1S62,56.6,61,57.1    c-0.9,0.5-1.7,0.9-3.4,0.9c-1.7,0-2.5-0.4-3.4-0.9c-1-0.5-2.1-1.1-4.3-1.1c-2.2,0-3.3,0.6-4.3,1.1C44.8,57.6,44,58,42.3,58    c-1.7,0-2.5-0.4-3.4-0.9c-1-0.5-2.1-1.1-4.3-1.1s-3.3,0.6-4.3,1.1C29.5,57.6,28.7,58,27,58c-0.6,0-1,0.4-1,1s0.4,1,1,1    c2.2,0,3.3-0.6,4.3-1.1c0.9-0.5,1.7-0.9,3.4-0.9c1.7,0,2.5,0.4,3.4,0.9c1,0.5,2.1,1.1,4.3,1.1c2.2,0,3.3-0.6,4.3-1.1    c0.9-0.5,1.7-0.9,3.4-0.9c1.7,0,2.5,0.4,3.4,0.9c1,0.5,2.1,1.1,4.3,1.1c2.2,0,3.3-0.6,4.3-1.1c0.9-0.5,1.7-0.9,3.4-0.9    s2.5,0.4,3.4,0.9C69.7,59.4,70.8,60,73,60z"/>
<path d="M63.9,65.2c-0.7-0.5-1.6-1.2-3.3-1.2c-1.7,0-2.6,0.7-3.3,1.2c-0.6,0.5-1.1,0.8-2.1,0.8c-1,0-1.4-0.3-2.1-0.8    C52.6,64.7,51.7,64,50,64c-1.7,0-2.6,0.7-3.3,1.2c-0.6,0.5-1.1,0.8-2.1,0.8c-1,0-1.4-0.3-2.1-0.8C41.9,64.7,41,64,39.3,64    c-1.7,0-2.6,0.7-3.3,1.2C35.4,65.7,35,66,34,66c-0.6,0-1,0.4-1,1s0.4,1,1,1c1.7,0,2.6-0.7,3.3-1.2c0.6-0.5,1.1-0.8,2.1-0.8    s1.4,0.3,2.1,0.8c0.7,0.5,1.6,1.2,3.3,1.2c1.7,0,2.6-0.7,3.3-1.2C48.6,66.3,49,66,50,66c1,0,1.4,0.3,2.1,0.8    c0.7,0.5,1.6,1.2,3.3,1.2c1.7,0,2.6-0.7,3.3-1.2c0.6-0.5,1.1-0.8,2.1-0.8c1,0,1.4,0.3,2.1,0.8c0.7,0.5,1.6,1.2,3.3,1.2    c0.6,0,1-0.4,1-1s-0.4-1-1-1C65,66,64.6,65.7,63.9,65.2z"/>
<path d="M50,14c0.6,0,1-0.4,1-1v-1c0-0.6-0.4-1-1-1s-1,0.4-1,1v1C49,13.6,49.4,14,50,14z"/>
<path d="M73,37h1c0.6,0,1-0.4,1-1s-0.4-1-1-1h-1c-0.6,0-1,0.4-1,1S72.4,37,73,37z"/>
<path d="M26,37h1c0.6,0,1-0.4,1-1s-0.4-1-1-1h-1c-0.6,0-1,0.4-1,1S25.4,37,26,37z"/>
<path d="M66.3,20.7c0.3,0,0.5-0.1,0.7-0.3l0.7-0.7c0.4-0.4,0.4-1,0-1.4s-1-0.4-1.4,0L65.6,19c-0.4,0.4-0.4,1,0,1.4    C65.8,20.6,66,20.7,66.3,20.7z"/>
<path d="M33,20.4c0.2,0.2,0.5,0.3,0.7,0.3s0.5-0.1,0.7-0.3c0.4-0.4,0.4-1,0-1.4l-0.7-0.7c-0.4-0.4-1-0.4-1.4,0s-0.4,1,0,1.4    L33,20.4z"/>
</g>
</g>
<g id="mountain"/>
<g id="location"/>
<g id="traveling"/>
<g id="bonfire"/>
<g id="camera"/>
<g id="medicine"/>
<g id="drink"/>
<g id="canned_food"/>
<g id="nature"/>
<g id="map"/>
</svg>