<svg width="204" height="90" viewBox="0 0 204 90" fill="none" xmlns="http://www.w3.org/2000/svg">
<circle cx="36" cy="7" r="4" fill="#F58721"/>
<circle cx="27" cy="4" r="4" fill="#CD4C9A"/>
<path d="M5 4V40.5M5 4H0M5 4L19.5 4M5 83V40.5M5 83H10M5 83H0M5 40.5C37 40.5 44.5 33 47.5 25.5C50.5 18 42.5 13.5 42.5 13.5L39.5 16.5L42.75 13.25L46 10" stroke="#0ABBBE" stroke-width="5"/>
<path d="M20 14C20.5 16 27.1 20.2 33.5 19" stroke="#FFCA07" stroke-width="5"/>
<path d="M68.32 40.48C68.9333 41.5467 69.28 42.84 69.36 44.36V44.4C69.36 44.5867 69.36 44.7733 69.36 44.96C69.36 45.12 69.3467 45.28 69.32 45.44C69.16 46.72 68.7333 47.8933 68.04 48.96C67.3733 50.0267 66.5333 50.9333 65.52 51.68C64.5067 52.4267 63.3867 52.9733 62.16 53.32C60.9333 53.64 59.68 53.6933 58.4 53.48C58.4267 53.8533 58.44 54.2267 58.44 54.6C58.44 54.9467 58.44 55.4667 58.44 56.16C58.44 56.8267 58.44 57.7333 58.44 58.88C58.4667 60.0267 58.5067 61.5733 58.56 63.52V63.56C58.5333 63.56 58.5067 63.5733 58.48 63.6C58.48 63.6 58.4667 63.6 58.44 63.6C58.0667 63.7067 57.5867 63.7867 57 63.84C56.44 63.8667 55.84 63.8933 55.2 63.92C54.5867 63.92 53.9733 63.9067 53.36 63.88C52.7467 63.8533 52.2133 63.8133 51.76 63.76C51.68 61.8133 51.64 59.7067 51.64 57.44C51.64 55.1467 51.64 52.8 51.64 50.4C51.64 48 51.6267 45.5867 51.6 43.16C51.6 40.7333 51.56 38.4133 51.48 36.2C52.5733 35.9067 53.76 35.6933 55.04 35.56C56.3467 35.4267 57.64 35.4133 58.92 35.52C60.2267 35.6267 61.4933 35.8667 62.72 36.24C63.9467 36.5867 65.0267 37.12 65.96 37.84C66.92 38.5333 67.7067 39.4133 68.32 40.48ZM63.16 43.48C62.9733 43.16 62.7067 42.8933 62.36 42.68C61.6933 42.1467 60.92 41.8133 60.04 41.68C59.16 41.52 58.2933 41.5467 57.44 41.76C57.3867 41.76 57.3467 41.7733 57.32 41.8C57.3467 42.28 57.3467 42.7867 57.32 43.32C57.32 43.8533 57.32 44.3867 57.32 44.92C57.3467 45.4533 57.3733 45.9733 57.4 46.48C57.4533 46.96 57.5467 47.4 57.68 47.8H57.8C58.2267 47.7733 58.68 47.76 59.16 47.76C59.64 47.7333 60.1067 47.6933 60.56 47.64C61.04 47.5867 61.4933 47.4933 61.92 47.36C62.3733 47.2 62.76 46.96 63.08 46.64C63.2933 46.3467 63.44 46.0133 63.52 45.64C63.6267 45.2667 63.64 44.8933 63.56 44.52C63.5067 44.1467 63.3733 43.8 63.16 43.48ZM160.835 43.96C161.501 43.9867 162.261 44.0267 163.115 44.08C163.141 44.24 163.155 44.4 163.155 44.56C163.181 44.72 163.195 44.88 163.195 45.04V45.44C163.115 48.32 163.128 51.16 163.235 53.96C163.341 56.7333 163.301 59.5467 163.115 62.4C163.115 62.7467 163.101 63.0933 163.075 63.44C163.075 63.7867 162.915 63.9867 162.595 64.04H162.115C161.688 64.04 161.248 64.0267 160.795 64C160.368 63.9467 159.941 63.92 159.515 63.92C159.221 63.92 158.928 63.9467 158.635 64C158.368 64.0267 158.088 64.04 157.795 64.04C157.608 63.9867 157.475 63.88 157.395 63.72C157.341 63.56 157.315 63.3733 157.315 63.16C157.315 62.8667 157.341 62.6267 157.395 62.44C157.448 62.2533 157.475 62.0267 157.475 61.76C156.835 62.4 156.021 62.9467 155.035 63.4C154.075 63.8533 153.128 64.08 152.195 64.08C151.155 64.08 150.261 63.72 149.515 63C148.795 62.28 148.195 61.3867 147.715 60.32C147.235 59.2533 146.875 58.0933 146.635 56.84C146.421 55.5867 146.315 54.4267 146.315 53.36C146.315 52.0267 146.488 50.8 146.835 49.68C147.181 48.56 147.648 47.6 148.235 46.8C148.848 45.9733 149.568 45.3333 150.395 44.88C151.221 44.4 152.101 44.1467 153.035 44.12C153.515 44.12 153.955 44.1333 154.355 44.16C154.781 44.16 155.168 44.2267 155.515 44.36C155.861 44.4667 156.168 44.6533 156.435 44.92C156.701 45.16 156.928 45.5067 157.115 45.96C157.088 45.5333 157.101 45.1733 157.155 44.88C157.235 44.56 157.275 44.24 157.275 43.92C157.275 43.8933 157.355 43.88 157.515 43.88C157.701 43.8533 157.901 43.8533 158.115 43.88C158.328 43.88 158.541 43.88 158.755 43.88C158.968 43.88 159.115 43.88 159.195 43.88C159.648 43.9067 160.195 43.9333 160.835 43.96ZM152.595 50.28C151.981 50.7867 151.608 51.3733 151.475 52.04C151.368 52.3867 151.301 52.7467 151.275 53.12C151.248 53.4667 151.235 53.8133 151.235 54.16C151.235 55.36 151.541 56.3867 152.155 57.24C152.795 58.0667 153.675 58.48 154.795 58.48C155.461 58.48 155.955 58.3733 156.275 58.16C156.621 57.92 156.861 57.6 156.995 57.2C157.155 56.7733 157.235 56.2667 157.235 55.68C157.261 55.0667 157.275 54.3867 157.275 53.64C157.275 52.7067 157.261 51.9733 157.235 51.44C157.235 50.88 157.168 50.4533 157.035 50.16C156.928 49.8667 156.728 49.68 156.435 49.6C156.168 49.52 155.755 49.48 155.195 49.48C154.101 49.48 153.235 49.7467 152.595 50.28Z" fill="#0ABBBE"/>
<path d="M79.3731 54.08C78.7865 54.0533 78.3598 54.0133 78.0931 53.96V54.68C78.1198 55.48 78.1465 56.1333 78.1731 56.64C78.2265 57.1467 78.3998 57.64 78.6931 58.12C79.0131 58.7333 79.4665 59.1867 80.0531 59.48C80.6398 59.7733 81.2131 59.8667 81.7731 59.76C82.3331 59.6533 82.7998 59.3333 83.1731 58.8C83.5731 58.24 83.7465 57.4133 83.6931 56.32C83.9598 56.3467 84.3198 56.36 84.7731 56.36C85.2265 56.3333 85.6931 56.3067 86.1731 56.28C86.6798 56.2533 87.1598 56.2533 87.6131 56.28C88.0665 56.28 88.4398 56.32 88.7331 56.4C88.6798 57.0933 88.6265 57.7733 88.5731 58.44C88.5198 59.1067 88.4531 59.7333 88.3731 60.32C88.2931 60.88 88.1865 61.3733 88.0531 61.8C87.9465 62.2 87.7998 62.48 87.6131 62.64C87.1598 63.28 86.5731 63.7333 85.8531 64C85.1331 64.2667 84.3465 64.4267 83.4931 64.48C82.6398 64.5333 81.7598 64.5333 80.8531 64.48C79.9731 64.4267 79.1598 64.4 78.4131 64.4C77.6665 64.2933 76.9731 64.0533 76.3331 63.68C75.6131 63.1733 75.0131 62.52 74.5331 61.72C74.0531 60.8933 73.6665 60 73.3731 59.04C73.0798 58.0533 72.8798 57.0133 72.7731 55.92C72.6665 54.8267 72.6398 53.7333 72.6931 52.64C72.7731 51.6533 72.8531 50.7067 72.9331 49.8C73.0398 48.8667 73.2531 47.96 73.5731 47.08C73.9198 46.3067 74.4531 45.6533 75.1731 45.12C75.8931 44.56 76.7065 44.1467 77.6131 43.88C78.5198 43.5867 79.4798 43.4267 80.4931 43.4C81.5065 43.3733 82.4931 43.48 83.4531 43.72C84.6798 43.9333 85.6665 44.36 86.4131 45C87.1598 45.64 87.7198 46.4133 88.0931 47.32C88.4931 48.2267 88.7331 49.2267 88.8131 50.32C88.8931 51.4133 88.8931 52.52 88.8131 53.64C88.6265 53.6933 88.2665 53.7467 87.7331 53.8C87.2265 53.8533 86.6131 53.9067 85.8931 53.96C85.1998 54.0133 84.4531 54.0533 83.6531 54.08C82.8531 54.1067 82.0798 54.12 81.3331 54.12C80.6131 54.12 79.9598 54.1067 79.3731 54.08ZM84.0531 48.84C83.7865 48.36 83.4131 48 82.9331 47.76C82.7198 47.6267 82.5065 47.5333 82.2931 47.48C82.0798 47.4 81.8265 47.36 81.5331 47.36C80.8931 47.36 80.3731 47.4267 79.9731 47.56C79.5731 47.6933 79.2531 47.88 79.0131 48.12C78.7731 48.36 78.5865 48.64 78.4531 48.96C78.3465 49.28 78.2665 49.6133 78.2131 49.96C78.1598 50.2533 78.1331 50.4667 78.1331 50.6C78.1598 50.7067 78.2931 50.7867 78.5331 50.84C78.7731 50.8667 79.1465 50.88 79.6531 50.88C80.1865 50.8533 80.9598 50.84 81.9731 50.84C82.6665 50.84 83.1865 50.8533 83.5331 50.88C83.8798 50.9067 84.1198 50.92 84.2531 50.92C84.4131 50.8933 84.4931 50.8533 84.4931 50.8C84.4931 50.72 84.4931 50.5733 84.4931 50.36C84.4931 49.8267 84.3465 49.32 84.0531 48.84ZM173.858 45C173.885 45.08 173.898 45.2133 173.898 45.4C174.005 45.3467 174.245 45.24 174.618 45.08C175.018 44.92 175.405 44.7733 175.778 44.64C176.285 44.48 176.858 44.36 177.498 44.28C178.138 44.1733 178.738 44.1067 179.298 44.08C179.858 44.0533 180.325 44.0533 180.698 44.08C181.098 44.08 181.298 44.0933 181.298 44.12C181.298 45.0267 181.285 45.8267 181.258 46.52C181.258 47.2133 181.258 47.84 181.258 48.4C181.258 48.9333 181.258 49.4267 181.258 49.88C181.258 50.3333 181.271 50.76 181.298 51.16L180.938 51.04C180.805 50.9867 180.658 50.9467 180.498 50.92C180.365 50.8667 180.231 50.8133 180.098 50.76C179.778 50.68 179.445 50.6133 179.098 50.56C178.778 50.5067 178.605 50.48 178.578 50.48C177.858 50.4 177.191 50.36 176.578 50.36C175.991 50.36 175.471 50.4533 175.018 50.64C174.591 50.8267 174.258 51.12 174.018 51.52C173.778 51.92 173.671 52.4933 173.698 53.24C173.725 54.1733 173.751 55.0533 173.778 55.88C173.805 56.7067 173.818 57.5467 173.818 58.4C173.818 59.2267 173.818 60.08 173.818 60.96C173.845 61.8133 173.858 62.7333 173.858 63.72V63.88C173.405 64.0133 172.991 64.0933 172.618 64.12C172.245 64.1467 171.858 64.1467 171.458 64.12C171.058 64.12 170.618 64.1067 170.138 64.08C169.685 64.0533 169.138 64.0667 168.498 64.12C168.498 60.84 168.458 57.56 168.378 54.28C168.325 51 168.351 47.6 168.458 44.08C168.778 44.1067 169.045 44.1333 169.258 44.16C169.471 44.16 169.671 44.16 169.858 44.16C170.045 44.16 170.245 44.16 170.458 44.16C170.671 44.1333 170.938 44.1067 171.258 44.08C171.365 44.08 171.551 44.0667 171.818 44.04C172.111 44.0133 172.405 43.9867 172.698 43.96C173.018 43.9333 173.285 43.9333 173.498 43.96C173.738 43.96 173.858 43.9867 173.858 44.04C173.858 44.2533 173.858 44.4133 173.858 44.52C173.858 44.6267 173.858 44.72 173.858 44.8C173.858 44.8533 173.858 44.92 173.858 45Z" fill="#CD4C9A"/>
<path d="M103.827 37.56C103.853 37.2667 103.88 36.8533 103.907 36.32V35.88C103.907 35.8533 104.08 35.8267 104.427 35.8C104.8 35.7467 105.24 35.72 105.747 35.72C106.28 35.6933 106.84 35.6933 107.427 35.72C108.013 35.72 108.52 35.76 108.947 35.84V38.48C108.947 42.9333 109.013 47.3333 109.147 51.68C109.28 56.0267 109.293 60.12 109.187 63.96C108.36 63.96 107.453 63.9733 106.467 64C105.48 64.0533 104.587 64.0267 103.787 63.92C103.76 63.8667 103.747 63.7733 103.747 63.64C103.747 63.3733 103.733 63.16 103.707 63C103.707 62.84 103.707 62.6133 103.707 62.32C103.653 62.1867 103.587 62.0933 103.507 62.04C103.453 61.96 103.387 62 103.307 62.16C102.907 62.96 102.373 63.48 101.707 63.72C101.04 63.9333 100.333 63.9867 99.5866 63.88C98.0666 63.7733 96.8666 63.3867 95.9866 62.72C95.1066 62.0267 94.4399 61.16 93.9866 60.12C93.5599 59.0533 93.2666 57.8667 93.1066 56.56C92.9732 55.2533 92.8932 53.9333 92.8666 52.6C92.8666 51.6667 92.9199 50.76 93.0266 49.88C93.1599 49 93.3466 48.2 93.5866 47.48C93.8532 46.7333 94.1866 46.1067 94.5866 45.6C95.0132 45.0667 95.5199 44.6933 96.1066 44.48C96.8266 44.2133 97.6132 44.0533 98.4666 44C99.3466 43.92 100.173 43.92 100.947 44C101.72 44.0533 102.373 44.1733 102.907 44.36C103.44 44.5467 103.733 44.76 103.787 45C103.76 43.7467 103.747 42.7333 103.747 41.96C103.747 41.1867 103.747 40.5733 103.747 40.12C103.747 39.64 103.747 39.28 103.747 39.04C103.773 38.7733 103.787 38.5333 103.787 38.32C103.813 38.08 103.827 37.8267 103.827 37.56ZM98.8666 49.28C98.2266 49.76 97.8399 50.4667 97.7066 51.4C97.5732 51.7733 97.4932 52.16 97.4666 52.56C97.4399 52.96 97.4266 53.3467 97.4266 53.72C97.4266 54.3867 97.5066 55.04 97.6666 55.68C97.8266 56.2933 98.0666 56.8533 98.3866 57.36C98.7066 57.84 99.0932 58.2267 99.5466 58.52C99.9999 58.8133 100.507 58.96 101.067 58.96C101.733 58.96 102.253 58.8133 102.627 58.52C103.027 58.2267 103.32 57.8267 103.507 57.32C103.72 56.8133 103.84 56.2133 103.867 55.52C103.92 54.8 103.947 54.0133 103.947 53.16C103.947 52.12 103.92 51.3067 103.867 50.72C103.84 50.1067 103.747 49.64 103.587 49.32C103.427 49 103.173 48.8 102.827 48.72C102.507 48.6133 102.067 48.56 101.507 48.56C100.413 48.56 99.5332 48.8 98.8666 49.28ZM191.625 54.08C191.038 54.0533 190.611 54.0133 190.345 53.96V54.68C190.371 55.48 190.398 56.1333 190.425 56.64C190.478 57.1467 190.651 57.64 190.945 58.12C191.265 58.7333 191.718 59.1867 192.305 59.48C192.891 59.7733 193.465 59.8667 194.025 59.76C194.585 59.6533 195.051 59.3333 195.425 58.8C195.825 58.24 195.998 57.4133 195.945 56.32C196.211 56.3467 196.571 56.36 197.025 56.36C197.478 56.3333 197.945 56.3067 198.425 56.28C198.931 56.2533 199.411 56.2533 199.865 56.28C200.318 56.28 200.691 56.32 200.985 56.4C200.931 57.0933 200.878 57.7733 200.825 58.44C200.771 59.1067 200.705 59.7333 200.625 60.32C200.545 60.88 200.438 61.3733 200.305 61.8C200.198 62.2 200.051 62.48 199.865 62.64C199.411 63.28 198.825 63.7333 198.105 64C197.385 64.2667 196.598 64.4267 195.745 64.48C194.891 64.5333 194.011 64.5333 193.105 64.48C192.225 64.4267 191.411 64.4 190.665 64.4C189.918 64.2933 189.225 64.0533 188.585 63.68C187.865 63.1733 187.265 62.52 186.785 61.72C186.305 60.8933 185.918 60 185.625 59.04C185.331 58.0533 185.131 57.0133 185.025 55.92C184.918 54.8267 184.891 53.7333 184.945 52.64C185.025 51.6533 185.105 50.7067 185.185 49.8C185.291 48.8667 185.505 47.96 185.825 47.08C186.171 46.3067 186.705 45.6533 187.425 45.12C188.145 44.56 188.958 44.1467 189.865 43.88C190.771 43.5867 191.731 43.4267 192.745 43.4C193.758 43.3733 194.745 43.48 195.705 43.72C196.931 43.9333 197.918 44.36 198.665 45C199.411 45.64 199.971 46.4133 200.345 47.32C200.745 48.2267 200.985 49.2267 201.065 50.32C201.145 51.4133 201.145 52.52 201.065 53.64C200.878 53.6933 200.518 53.7467 199.985 53.8C199.478 53.8533 198.865 53.9067 198.145 53.96C197.451 54.0133 196.705 54.0533 195.905 54.08C195.105 54.1067 194.331 54.12 193.585 54.12C192.865 54.12 192.211 54.1067 191.625 54.08ZM196.305 48.84C196.038 48.36 195.665 48 195.185 47.76C194.971 47.6267 194.758 47.5333 194.545 47.48C194.331 47.4 194.078 47.36 193.785 47.36C193.145 47.36 192.625 47.4267 192.225 47.56C191.825 47.6933 191.505 47.88 191.265 48.12C191.025 48.36 190.838 48.64 190.705 48.96C190.598 49.28 190.518 49.6133 190.465 49.96C190.411 50.2533 190.385 50.4667 190.385 50.6C190.411 50.7067 190.545 50.7867 190.785 50.84C191.025 50.8667 191.398 50.88 191.905 50.88C192.438 50.8533 193.211 50.84 194.225 50.84C194.918 50.84 195.438 50.8533 195.785 50.88C196.131 50.9067 196.371 50.92 196.505 50.92C196.665 50.8933 196.745 50.8533 196.745 50.8C196.745 50.72 196.745 50.5733 196.745 50.36C196.745 49.8267 196.598 49.32 196.305 48.84Z" fill="#F58721"/>
<path d="M117.062 43.88C117.676 43.9067 118.409 43.9067 119.262 43.88H119.942V44C119.916 47.2267 119.849 50.52 119.742 53.88C119.662 57.24 119.716 60.5333 119.902 63.76C119.769 63.92 119.436 64 118.902 64C118.369 64.0267 117.782 64.0267 117.142 64C116.529 64 115.942 63.9867 115.382 63.96C114.822 63.9333 114.449 63.9467 114.262 64C114.396 62.32 114.449 60.6133 114.422 58.88C114.422 57.1467 114.396 55.4267 114.342 53.72C114.289 52.0133 114.262 50.3333 114.262 48.68C114.262 47 114.342 45.3733 114.502 43.8V43.76C114.609 43.7333 114.782 43.7333 115.022 43.76C115.289 43.7867 115.489 43.8 115.622 43.8C115.969 43.8267 116.449 43.8533 117.062 43.88ZM114.382 38.28C114.329 37.4267 114.316 36.3867 114.342 35.16L119.782 35.28C119.782 35.44 119.782 35.7333 119.782 36.16C119.809 36.56 119.822 37.0133 119.822 37.52C119.849 38 119.862 38.5067 119.862 39.04C119.889 39.5467 119.902 40 119.902 40.4C119.796 40.56 119.542 40.6667 119.142 40.72C118.769 40.7733 118.316 40.8 117.782 40.8C117.276 40.7733 116.729 40.7467 116.142 40.72C115.556 40.6667 115.009 40.6533 114.502 40.68C114.502 39.9067 114.462 39.1067 114.382 38.28Z" fill="#FFCA07"/>
<path d="M132.223 41.88C131.85 41.96 131.557 42.1067 131.343 42.32C131.29 42.3733 131.237 42.4667 131.183 42.6C131.157 42.7067 131.13 42.7867 131.103 42.84C131.05 42.92 130.997 43.3867 130.943 44.24C130.917 45.0933 130.89 46.1067 130.863 47.28C130.837 48.4533 130.823 49.68 130.823 50.96C130.823 52.2133 130.863 53.3067 130.943 54.24C131.023 55.0133 131.223 55.7733 131.543 56.52C131.89 57.24 132.45 57.7067 133.223 57.92C133.81 57.9733 134.357 57.8933 134.863 57.68C135.397 57.44 135.797 57.0533 136.063 56.52C136.357 55.9067 136.477 55.2667 136.423 54.6C136.397 53.9067 136.45 53.2267 136.583 52.56C136.957 52.6133 137.37 52.6267 137.823 52.6C138.303 52.5733 138.783 52.56 139.263 52.56C139.743 52.56 140.21 52.5733 140.663 52.6C141.143 52.6267 141.57 52.6933 141.943 52.8C142.397 54.1867 142.517 55.5733 142.303 56.96C142.09 58.32 141.623 59.5467 140.903 60.64C140.183 61.7333 139.237 62.64 138.063 63.36C136.917 64.0533 135.61 64.4133 134.143 64.44C133.183 64.5733 132.197 64.5733 131.183 64.44C130.17 64.3333 129.223 64.08 128.343 63.68C127.463 63.2533 126.717 62.6667 126.103 61.92C125.517 61.1733 125.17 60.24 125.063 59.12C125.01 58.16 124.97 57.16 124.943 56.12C124.917 55.08 124.89 53.92 124.863 52.64C124.863 51.3333 124.863 49.8667 124.863 48.24C124.89 46.5867 124.917 44.68 124.943 42.52C124.89 42.0667 124.903 41.6133 124.983 41.16C125.09 40.68 125.223 40.24 125.383 39.84C125.623 39.1467 125.917 38.5067 126.263 37.92C126.637 37.3333 127.077 36.8133 127.583 36.36C127.877 36.1467 128.197 35.9733 128.543 35.84C128.89 35.68 129.25 35.5467 129.623 35.44C130.85 35.04 132.063 34.88 133.263 34.96C134.463 35.04 135.583 35.32 136.623 35.8C137.69 36.2533 138.65 36.8667 139.503 37.64C140.357 38.4133 141.037 39.3067 141.543 40.32C142.05 41.3067 142.357 42.3867 142.463 43.56C142.57 44.7333 142.41 45.9333 141.983 47.16C140.997 47.3733 140.023 47.4533 139.063 47.4C138.13 47.32 137.157 47.1867 136.143 47C136.063 46.4933 136.01 45.92 135.983 45.28C135.983 44.64 135.917 44.0533 135.783 43.52C135.65 42.96 135.397 42.5067 135.023 42.16C134.677 41.8133 134.117 41.6533 133.343 41.68C132.997 41.7333 132.623 41.8 132.223 41.88Z" fill="#89C178"/>
<path d="M55.642 75.97C55.11 75.97 54.6293 76.0633 54.2 76.25C53.7707 76.4273 53.4067 76.6933 53.108 77.048C52.8093 77.3933 52.5807 77.818 52.422 78.322C52.2633 78.8167 52.184 79.3767 52.184 80.002C52.184 80.8233 52.31 81.5373 52.562 82.144C52.8233 82.7507 53.206 83.2173 53.71 83.544C54.2233 83.8707 54.8627 84.034 55.628 84.034C56.0667 84.034 56.482 83.9967 56.874 83.922C57.266 83.8473 57.6487 83.754 58.022 83.642V84.734C57.6487 84.874 57.2613 84.9767 56.86 85.042C56.468 85.1073 55.9967 85.14 55.446 85.14C54.4287 85.14 53.5793 84.93 52.898 84.51C52.2167 84.09 51.7033 83.4927 51.358 82.718C51.022 81.9433 50.854 81.0333 50.854 79.988C50.854 79.232 50.9567 78.5413 51.162 77.916C51.3767 77.2907 51.6847 76.7493 52.086 76.292C52.4967 75.8347 53.0007 75.4847 53.598 75.242C54.1953 74.99 54.8813 74.864 55.656 74.864C56.1693 74.864 56.664 74.9153 57.14 75.018C57.616 75.1207 58.0407 75.2653 58.414 75.452L57.91 76.516C57.602 76.376 57.2567 76.25 56.874 76.138C56.5007 76.026 56.09 75.97 55.642 75.97ZM61.2677 77.482C61.2677 77.6593 61.2584 77.8413 61.2397 78.028C61.2304 78.2147 61.2164 78.3827 61.1977 78.532H61.2817C61.4404 78.2707 61.641 78.056 61.8837 77.888C62.1264 77.72 62.397 77.594 62.6957 77.51C62.9944 77.4167 63.3024 77.37 63.6197 77.37C64.2264 77.37 64.7304 77.468 65.1317 77.664C65.5424 77.8507 65.8504 78.1447 66.0557 78.546C66.261 78.9473 66.3637 79.47 66.3637 80.114V85H65.1457V80.198C65.1457 79.5913 65.0104 79.1387 64.7397 78.84C64.469 78.5413 64.0444 78.392 63.4657 78.392C62.9057 78.392 62.467 78.4993 62.1497 78.714C61.8324 78.9193 61.6037 79.2273 61.4637 79.638C61.333 80.0393 61.2677 80.534 61.2677 81.122V85H60.0357V74.36H61.2677V77.482ZM69.922 77.496V85H68.69V77.496H69.922ZM69.32 74.682C69.5067 74.682 69.67 74.7473 69.81 74.878C69.9593 74.9993 70.034 75.1953 70.034 75.466C70.034 75.7273 69.9593 75.9233 69.81 76.054C69.67 76.1847 69.5067 76.25 69.32 76.25C69.1147 76.25 68.942 76.1847 68.802 76.054C68.662 75.9233 68.592 75.7273 68.592 75.466C68.592 75.1953 68.662 74.9993 68.802 74.878C68.942 74.7473 69.1147 74.682 69.32 74.682ZM73.5314 85H72.2994V74.36H73.5314V85ZM78.5688 85.14C77.6354 85.14 76.8888 84.818 76.3288 84.174C75.7688 83.5207 75.4888 82.55 75.4888 81.262C75.4888 79.974 75.7688 79.0033 76.3288 78.35C76.8981 77.6873 77.6494 77.356 78.5828 77.356C78.9748 77.356 79.3154 77.4073 79.6048 77.51C79.8941 77.6033 80.1461 77.734 80.3608 77.902C80.5754 78.07 80.7574 78.2567 80.9068 78.462H80.9908C80.9814 78.3407 80.9628 78.1633 80.9348 77.93C80.9161 77.6873 80.9068 77.496 80.9068 77.356V74.36H82.1388V85H81.1448L80.9628 83.992H80.9068C80.7574 84.2067 80.5754 84.4027 80.3608 84.58C80.1461 84.748 79.8894 84.8833 79.5908 84.986C79.3014 85.0887 78.9608 85.14 78.5688 85.14ZM78.7648 84.118C79.5581 84.118 80.1134 83.9033 80.4308 83.474C80.7574 83.0353 80.9208 82.3773 80.9208 81.5V81.276C80.9208 80.3427 80.7668 79.6287 80.4588 79.134C80.1508 78.63 79.5814 78.378 78.7508 78.378C78.0881 78.378 77.5888 78.644 77.2528 79.176C76.9261 79.6987 76.7628 80.4033 76.7628 81.29C76.7628 82.186 76.9261 82.8813 77.2528 83.376C77.5888 83.8707 78.0928 84.118 78.7648 84.118ZM96.5313 85H95.2713V80.338H90.1473V85H88.8873V75.004H90.1473V79.232H95.2713V75.004H96.5313V85ZM101.994 77.356C102.638 77.356 103.189 77.496 103.646 77.776C104.113 78.056 104.468 78.4527 104.71 78.966C104.962 79.47 105.088 80.0627 105.088 80.744V81.486H99.9503C99.9689 82.3353 100.184 82.984 100.594 83.432C101.014 83.8707 101.598 84.09 102.344 84.09C102.82 84.09 103.24 84.048 103.604 83.964C103.978 83.8707 104.36 83.74 104.752 83.572V84.65C104.37 84.818 103.992 84.9393 103.618 85.014C103.245 85.098 102.802 85.14 102.288 85.14C101.579 85.14 100.949 84.9953 100.398 84.706C99.8569 84.4167 99.4323 83.9873 99.1243 83.418C98.8256 82.8393 98.6763 82.1347 98.6763 81.304C98.6763 80.4827 98.8116 79.778 99.0823 79.19C99.3623 78.602 99.7496 78.1493 100.244 77.832C100.748 77.5147 101.332 77.356 101.994 77.356ZM101.98 78.364C101.392 78.364 100.926 78.5553 100.58 78.938C100.244 79.3113 100.044 79.834 99.9783 80.506H103.8C103.8 80.0767 103.735 79.7033 103.604 79.386C103.474 79.0687 103.273 78.8213 103.002 78.644C102.741 78.4573 102.4 78.364 101.98 78.364ZM109.841 77.37C110.755 77.37 111.432 77.5707 111.871 77.972C112.309 78.3733 112.529 79.0127 112.529 79.89V85H111.633L111.395 83.936H111.339C111.124 84.2067 110.9 84.4353 110.667 84.622C110.443 84.7993 110.181 84.93 109.883 85.014C109.593 85.098 109.239 85.14 108.819 85.14C108.371 85.14 107.965 85.0607 107.601 84.902C107.246 84.7433 106.966 84.5007 106.761 84.174C106.555 83.838 106.453 83.418 106.453 82.914C106.453 82.1673 106.747 81.5933 107.335 81.192C107.923 80.7813 108.828 80.5573 110.051 80.52L111.325 80.478V80.03C111.325 79.4047 111.189 78.9707 110.919 78.728C110.648 78.4853 110.265 78.364 109.771 78.364C109.379 78.364 109.005 78.4247 108.651 78.546C108.296 78.658 107.965 78.7887 107.657 78.938L107.279 78.014C107.605 77.8367 107.993 77.6873 108.441 77.566C108.889 77.4353 109.355 77.37 109.841 77.37ZM110.205 81.374C109.271 81.4113 108.623 81.5607 108.259 81.822C107.904 82.0833 107.727 82.452 107.727 82.928C107.727 83.348 107.853 83.656 108.105 83.852C108.366 84.048 108.697 84.146 109.099 84.146C109.733 84.146 110.261 83.9733 110.681 83.628C111.101 83.2733 111.311 82.732 111.311 82.004V81.332L110.205 81.374ZM116.078 85H114.846V74.36H116.078V85ZM120.962 84.132C121.148 84.132 121.34 84.118 121.536 84.09C121.732 84.0527 121.89 84.0153 122.012 83.978V84.916C121.881 84.9813 121.694 85.0327 121.452 85.07C121.209 85.1167 120.976 85.14 120.752 85.14C120.36 85.14 119.996 85.0747 119.66 84.944C119.333 84.804 119.067 84.566 118.862 84.23C118.656 83.894 118.554 83.4227 118.554 82.816V78.448H117.49V77.86L118.568 77.37L119.058 75.774H119.786V77.496H121.956V78.448H119.786V82.788C119.786 83.2453 119.893 83.586 120.108 83.81C120.332 84.0247 120.616 84.132 120.962 84.132ZM124.746 77.482C124.746 77.6593 124.737 77.8413 124.718 78.028C124.709 78.2147 124.695 78.3827 124.676 78.532H124.76C124.919 78.2707 125.12 78.056 125.362 77.888C125.605 77.72 125.876 77.594 126.174 77.51C126.473 77.4167 126.781 77.37 127.098 77.37C127.705 77.37 128.209 77.468 128.61 77.664C129.021 77.8507 129.329 78.1447 129.534 78.546C129.74 78.9473 129.842 79.47 129.842 80.114V85H128.624V80.198C128.624 79.5913 128.489 79.1387 128.218 78.84C127.948 78.5413 127.523 78.392 126.944 78.392C126.384 78.392 125.946 78.4993 125.628 78.714C125.311 78.9193 125.082 79.2273 124.942 79.638C124.812 80.0393 124.746 80.534 124.746 81.122V85H123.514V74.36H124.746V77.482ZM142.204 82.326C142.204 82.9233 142.059 83.432 141.77 83.852C141.48 84.2627 141.065 84.58 140.524 84.804C139.992 85.028 139.362 85.14 138.634 85.14C138.26 85.14 137.901 85.1213 137.556 85.084C137.22 85.0467 136.912 84.9953 136.632 84.93C136.352 84.8553 136.104 84.7667 135.89 84.664V83.46C136.226 83.6093 136.641 83.7447 137.136 83.866C137.64 83.9873 138.158 84.048 138.69 84.048C139.184 84.048 139.6 83.9827 139.936 83.852C140.272 83.7213 140.524 83.5347 140.692 83.292C140.86 83.0493 140.944 82.7647 140.944 82.438C140.944 82.1113 140.874 81.836 140.734 81.612C140.594 81.388 140.351 81.1827 140.006 80.996C139.67 80.8 139.198 80.5947 138.592 80.38C138.162 80.2213 137.784 80.0533 137.458 79.876C137.14 79.6893 136.874 79.4793 136.66 79.246C136.445 79.0127 136.282 78.7467 136.17 78.448C136.067 78.1493 136.016 77.804 136.016 77.412C136.016 76.88 136.151 76.4273 136.422 76.054C136.692 75.6713 137.066 75.3773 137.542 75.172C138.027 74.9667 138.582 74.864 139.208 74.864C139.758 74.864 140.262 74.9153 140.72 75.018C141.177 75.1207 141.592 75.256 141.966 75.424L141.574 76.502C141.228 76.3527 140.85 76.2267 140.44 76.124C140.038 76.0213 139.618 75.97 139.18 75.97C138.76 75.97 138.41 76.0307 138.13 76.152C137.85 76.2733 137.64 76.446 137.5 76.67C137.36 76.8847 137.29 77.1367 137.29 77.426C137.29 77.762 137.36 78.042 137.5 78.266C137.64 78.49 137.868 78.6907 138.186 78.868C138.503 79.0453 138.932 79.2367 139.474 79.442C140.062 79.6567 140.556 79.89 140.958 80.142C141.368 80.3847 141.676 80.6787 141.882 81.024C142.096 81.3693 142.204 81.8033 142.204 82.326ZM147.619 77.356C148.543 77.356 149.285 77.678 149.845 78.322C150.415 78.966 150.699 79.9367 150.699 81.234C150.699 82.0833 150.569 82.802 150.307 83.39C150.055 83.9687 149.696 84.4073 149.229 84.706C148.772 84.9953 148.231 85.14 147.605 85.14C147.223 85.14 146.882 85.0887 146.583 84.986C146.285 84.8833 146.028 84.7527 145.813 84.594C145.608 84.426 145.431 84.244 145.281 84.048H145.197C145.216 84.2067 145.235 84.4073 145.253 84.65C145.272 84.8927 145.281 85.1027 145.281 85.28V88.36H144.049V77.496H145.057L145.225 78.518H145.281C145.431 78.3033 145.608 78.1073 145.813 77.93C146.028 77.7527 146.28 77.6127 146.569 77.51C146.868 77.4073 147.218 77.356 147.619 77.356ZM147.395 78.392C146.891 78.392 146.485 78.49 146.177 78.686C145.869 78.8727 145.645 79.1573 145.505 79.54C145.365 79.9227 145.291 80.408 145.281 80.996V81.234C145.281 81.85 145.347 82.3727 145.477 82.802C145.608 83.2313 145.827 83.558 146.135 83.782C146.453 84.006 146.882 84.118 147.423 84.118C147.881 84.118 148.254 83.992 148.543 83.74C148.842 83.488 149.061 83.1473 149.201 82.718C149.351 82.2793 149.425 81.78 149.425 81.22C149.425 80.3613 149.257 79.6753 148.921 79.162C148.595 78.6487 148.086 78.392 147.395 78.392ZM155.561 77.356C156.205 77.356 156.755 77.496 157.213 77.776C157.679 78.056 158.034 78.4527 158.277 78.966C158.529 79.47 158.655 80.0627 158.655 80.744V81.486H153.517C153.535 82.3353 153.75 82.984 154.161 83.432C154.581 83.8707 155.164 84.09 155.911 84.09C156.387 84.09 156.807 84.048 157.171 83.964C157.544 83.8707 157.927 83.74 158.319 83.572V84.65C157.936 84.818 157.558 84.9393 157.185 85.014C156.811 85.098 156.368 85.14 155.855 85.14C155.145 85.14 154.515 84.9953 153.965 84.706C153.423 84.4167 152.999 83.9873 152.691 83.418C152.392 82.8393 152.243 82.1347 152.243 81.304C152.243 80.4827 152.378 79.778 152.649 79.19C152.929 78.602 153.316 78.1493 153.811 77.832C154.315 77.5147 154.898 77.356 155.561 77.356ZM155.547 78.364C154.959 78.364 154.492 78.5553 154.147 78.938C153.811 79.3113 153.61 79.834 153.545 80.506H157.367C157.367 80.0767 157.301 79.7033 157.171 79.386C157.04 79.0687 156.839 78.8213 156.569 78.644C156.307 78.4573 155.967 78.364 155.547 78.364ZM163.575 85.14C162.912 85.14 162.32 85.0047 161.797 84.734C161.284 84.4633 160.878 84.0433 160.579 83.474C160.29 82.9047 160.145 82.1767 160.145 81.29C160.145 80.366 160.299 79.6147 160.607 79.036C160.915 78.4573 161.33 78.0327 161.853 77.762C162.385 77.4913 162.987 77.356 163.659 77.356C164.042 77.356 164.41 77.398 164.765 77.482C165.12 77.5567 165.409 77.65 165.633 77.762L165.255 78.784C165.031 78.7 164.77 78.6207 164.471 78.546C164.172 78.4713 163.892 78.434 163.631 78.434C163.127 78.434 162.712 78.5413 162.385 78.756C162.058 78.9707 161.816 79.288 161.657 79.708C161.498 80.128 161.419 80.6507 161.419 81.276C161.419 81.8733 161.498 82.382 161.657 82.802C161.816 83.222 162.054 83.5393 162.371 83.754C162.688 83.9687 163.085 84.076 163.561 84.076C163.972 84.076 164.331 84.034 164.639 83.95C164.956 83.866 165.246 83.7633 165.507 83.642V84.734C165.255 84.8647 164.975 84.9627 164.667 85.028C164.368 85.1027 164.004 85.14 163.575 85.14ZM168.524 77.496V85H167.292V77.496H168.524ZM167.922 74.682C168.108 74.682 168.272 74.7473 168.412 74.878C168.561 74.9993 168.636 75.1953 168.636 75.466C168.636 75.7273 168.561 75.9233 168.412 76.054C168.272 76.1847 168.108 76.25 167.922 76.25C167.716 76.25 167.544 76.1847 167.404 76.054C167.264 75.9233 167.194 75.7273 167.194 75.466C167.194 75.1953 167.264 74.9993 167.404 74.878C167.544 74.7473 167.716 74.682 167.922 74.682ZM173.743 77.37C174.658 77.37 175.334 77.5707 175.773 77.972C176.212 78.3733 176.431 79.0127 176.431 79.89V85H175.535L175.297 83.936H175.241C175.026 84.2067 174.802 84.4353 174.569 84.622C174.345 84.7993 174.084 84.93 173.785 85.014C173.496 85.098 173.141 85.14 172.721 85.14C172.273 85.14 171.867 85.0607 171.503 84.902C171.148 84.7433 170.868 84.5007 170.663 84.174C170.458 83.838 170.355 83.418 170.355 82.914C170.355 82.1673 170.649 81.5933 171.237 81.192C171.825 80.7813 172.73 80.5573 173.953 80.52L175.227 80.478V80.03C175.227 79.4047 175.092 78.9707 174.821 78.728C174.55 78.4853 174.168 78.364 173.673 78.364C173.281 78.364 172.908 78.4247 172.553 78.546C172.198 78.658 171.867 78.7887 171.559 78.938L171.181 78.014C171.508 77.8367 171.895 77.6873 172.343 77.566C172.791 77.4353 173.258 77.37 173.743 77.37ZM174.107 81.374C173.174 81.4113 172.525 81.5607 172.161 81.822C171.806 82.0833 171.629 82.452 171.629 82.928C171.629 83.348 171.755 83.656 172.007 83.852C172.268 84.048 172.6 84.146 173.001 84.146C173.636 84.146 174.163 83.9733 174.583 83.628C175.003 83.2733 175.213 82.732 175.213 82.004V81.332L174.107 81.374ZM179.981 85H178.749V74.36H179.981V85ZM183.59 77.496V85H182.358V77.496H183.59ZM182.988 74.682C183.175 74.682 183.338 74.7473 183.478 74.878C183.627 74.9993 183.702 75.1953 183.702 75.466C183.702 75.7273 183.627 75.9233 183.478 76.054C183.338 76.1847 183.175 76.25 182.988 76.25C182.783 76.25 182.61 76.1847 182.47 76.054C182.33 75.9233 182.26 75.7273 182.26 75.466C182.26 75.1953 182.33 74.9993 182.47 74.878C182.61 74.7473 182.783 74.682 182.988 74.682ZM190.853 82.928C190.853 83.4133 190.732 83.8193 190.489 84.146C190.247 84.4727 189.901 84.72 189.453 84.888C189.005 85.056 188.473 85.14 187.857 85.14C187.335 85.14 186.882 85.098 186.499 85.014C186.126 84.93 185.795 84.8133 185.505 84.664V83.544C185.804 83.6933 186.163 83.8333 186.583 83.964C187.013 84.0853 187.447 84.146 187.885 84.146C188.511 84.146 188.963 84.048 189.243 83.852C189.523 83.6467 189.663 83.376 189.663 83.04C189.663 82.8533 189.612 82.6853 189.509 82.536C189.407 82.3867 189.22 82.2373 188.949 82.088C188.688 81.9387 188.31 81.7707 187.815 81.584C187.33 81.3973 186.915 81.2107 186.569 81.024C186.224 80.8373 185.958 80.6133 185.771 80.352C185.585 80.0907 185.491 79.7547 185.491 79.344C185.491 78.7093 185.748 78.2193 186.261 77.874C186.784 77.5287 187.465 77.356 188.305 77.356C188.763 77.356 189.187 77.4027 189.579 77.496C189.981 77.58 190.354 77.7013 190.699 77.86L190.279 78.84C190.074 78.7467 189.855 78.6673 189.621 78.602C189.397 78.5273 189.169 78.4713 188.935 78.434C188.702 78.3873 188.464 78.364 188.221 78.364C187.717 78.364 187.33 78.448 187.059 78.616C186.798 78.7747 186.667 78.994 186.667 79.274C186.667 79.4793 186.728 79.6567 186.849 79.806C186.971 79.946 187.171 80.086 187.451 80.226C187.741 80.3567 188.123 80.5153 188.599 80.702C189.075 80.8793 189.481 81.0613 189.817 81.248C190.153 81.4347 190.41 81.6633 190.587 81.934C190.765 82.1953 190.853 82.5267 190.853 82.928ZM195.173 84.132C195.359 84.132 195.551 84.118 195.747 84.09C195.943 84.0527 196.101 84.0153 196.223 83.978V84.916C196.092 84.9813 195.905 85.0327 195.663 85.07C195.42 85.1167 195.187 85.14 194.963 85.14C194.571 85.14 194.207 85.0747 193.871 84.944C193.544 84.804 193.278 84.566 193.073 84.23C192.867 83.894 192.765 83.4227 192.765 82.816V78.448H191.701V77.86L192.779 77.37L193.269 75.774H193.997V77.496H196.167V78.448H193.997V82.788C193.997 83.2453 194.104 83.586 194.319 83.81C194.543 84.0247 194.827 84.132 195.173 84.132ZM202.611 82.928C202.611 83.4133 202.49 83.8193 202.247 84.146C202.004 84.4727 201.659 84.72 201.211 84.888C200.763 85.056 200.231 85.14 199.615 85.14C199.092 85.14 198.64 85.098 198.257 85.014C197.884 84.93 197.552 84.8133 197.263 84.664V83.544C197.562 83.6933 197.921 83.8333 198.341 83.964C198.77 84.0853 199.204 84.146 199.643 84.146C200.268 84.146 200.721 84.048 201.001 83.852C201.281 83.6467 201.421 83.376 201.421 83.04C201.421 82.8533 201.37 82.6853 201.267 82.536C201.164 82.3867 200.978 82.2373 200.707 82.088C200.446 81.9387 200.068 81.7707 199.573 81.584C199.088 81.3973 198.672 81.2107 198.327 81.024C197.982 80.8373 197.716 80.6133 197.529 80.352C197.342 80.0907 197.249 79.7547 197.249 79.344C197.249 78.7093 197.506 78.2193 198.019 77.874C198.542 77.5287 199.223 77.356 200.063 77.356C200.52 77.356 200.945 77.4027 201.337 77.496C201.738 77.58 202.112 77.7013 202.457 77.86L202.037 78.84C201.832 78.7467 201.612 78.6673 201.379 78.602C201.155 78.5273 200.926 78.4713 200.693 78.434C200.46 78.3873 200.222 78.364 199.979 78.364C199.475 78.364 199.088 78.448 198.817 78.616C198.556 78.7747 198.425 78.994 198.425 79.274C198.425 79.4793 198.486 79.6567 198.607 79.806C198.728 79.946 198.929 80.086 199.209 80.226C199.498 80.3567 199.881 80.5153 200.357 80.702C200.833 80.8793 201.239 81.0613 201.575 81.248C201.911 81.4347 202.168 81.6633 202.345 81.934C202.522 82.1953 202.611 82.5267 202.611 82.928Z" fill="black"/>
</svg>
