<svg xmlns="http://www.w3.org/2000/svg" xmlns:xlink="http://www.w3.org/1999/xlink" width="200" height="44" viewBox="0 0 200 44">
  <defs>
    <clipPath id="clip-path">
      <rect id="Прямоугольник_1" data-name="Прямоугольник 1" width="200" height="44" fill="#fff"/>
    </clipPath>
  </defs>
  <g id="WHA_logo_white" clip-path="url(#clip-path)">
    <path id="Контур_1" data-name="Контур 1" d="M0,0,11.187,43.953H25.369L30.35,18.41l5.2,25.542H61V26.743H74.75v17.21L90.779,0H74.756V14.731H61V0h-14.2L42.051,26.743,36.312,0H24.282l-5.2,26.743L13.993,0Z" fill="#fff"/>
    <path id="Контур_2" data-name="Контур 2" d="M93.493,29.017l4.449-15.478L102.6,29.017Z" fill="#fff"/>
    <path id="Контур_3" data-name="Контур 3" d="M89.141,43.953l1.947-5.781H105.27L107,43.953Z" fill="#fff"/>
    <path id="Контур_4" data-name="Контур 4" d="M121.148,43.953,105.512,0h15.636Z" fill="#006898"/>
    <path id="Контур_5" data-name="Контур 5" d="M105.512,0h15.636V43.956Z" fill="#e7a31d"/>
    <path id="Контур_6" data-name="Контур 6" d="M143.786,12.149h-3.868l-1.159-5.281c-.056-.222-.142-.659-.262-1.317s-.206-1.206-.261-1.645c-.045.359-.117.8-.214,1.337s-.2,1.02-.295,1.467-.5,2.257-1.2,5.431h-3.871l-3-12.1h3.157l1.312,6.076q.448,2.009.612,3.2.108-.834.386-2.3t.518-2.4L136.706.047h3.031l1.035,4.578q.267,1.1.539,2.54c.184.959.3,1.668.365,2.154q.108-.923.589-3.188L143.606.047h3.156Z" fill="#fff"/>
    <path id="Контур_7" data-name="Контур 7" d="M155.535,12.149h-7.2V.047h7.2V2.671H151.6v1.9h3.615V7.2H151.6V9.483h3.932Z" fill="#fff"/>
    <path id="Контур_8" data-name="Контур 8" d="M157.643.047h4.224a7.207,7.207,0,0,1,3.665.731,2.475,2.475,0,0,1,1.2,2.282,2.88,2.88,0,0,1-.52,1.737,2.337,2.337,0,0,1-1.391.928v.083a2.811,2.811,0,0,1,1.633.992,3,3,0,0,1,.506,1.8,3.087,3.087,0,0,1-1.24,2.6,5.4,5.4,0,0,1-3.373.948h-4.7Zm3.27,4.644h.987a1.772,1.772,0,0,0,1.088-.278,1,1,0,0,0,.386-.859q0-1.023-1.54-1.02h-.921Zm0,2.39V9.625h1.151c1.024,0,1.533-.431,1.533-1.292a1.111,1.111,0,0,0-.409-.926A1.88,1.88,0,0,0,162,7.082Z" fill="#fff"/>
    <path id="Контур_9" data-name="Контур 9" d="M141.075,27.991H137.8V23.058h-3.8v4.933h-3.287V15.89h3.287v4.486h3.8V15.89h3.279Z" fill="#fff"/>
    <path id="Контур_10" data-name="Контур 10" d="M150.891,27.991H143.7V15.89h7.188v2.624h-3.918v1.9h3.615v2.624h-3.615v2.285h3.918Z" fill="#fff"/>
    <path id="Контур_11" data-name="Контур 11" d="M153.013,27.991V15.89h3.27v9.45h4.664v2.64Z" fill="#fff"/>
    <path id="Контур_12" data-name="Контур 12" d="M171.664,19.739a4.056,4.056,0,0,1-1.2,3.132,4.845,4.845,0,0,1-3.4,1.112h-.918V28h-3.264V15.89h4.19a5.13,5.13,0,0,1,3.446,1A3.552,3.552,0,0,1,171.664,19.739Zm-5.515,1.573h.6a1.627,1.627,0,0,0,1.17-.414,1.5,1.5,0,0,0,.34-.525,1.513,1.513,0,0,0,.1-.618q0-1.226-1.36-1.226h-.834Z" fill="#fff"/>
    <path id="Контур_13" data-name="Контур 13" d="M138.136,43.833l-.6-2.271h-3.935l-.612,2.268h-3.6l3.951-12.151h4.363l4,12.151Zm-1.274-4.95-.514-1.987q-.185-.661-.442-1.712c-.176-.7-.279-1.2-.345-1.506q-.075.42-.295,1.39t-.973,3.816Z" fill="#fff"/>
    <path id="Контур_14" data-name="Контур 14" d="M147.885,36.749h5.228v6.523a14.444,14.444,0,0,1-4.68.728,5.662,5.662,0,0,1-4.33-1.623,6.484,6.484,0,0,1-1.526-4.628,6.088,6.088,0,0,1,1.668-4.561,6.427,6.427,0,0,1,4.691-1.632,10.308,10.308,0,0,1,2.158.217,9.115,9.115,0,0,1,1.769.556l-1.035,2.563a6.4,6.4,0,0,0-2.875-.647,2.732,2.732,0,0,0-2.225.931,4.035,4.035,0,0,0-.784,2.663,4,4,0,0,0,.709,2.588,2.454,2.454,0,0,0,2.041.889,5.939,5.939,0,0,0,1.341-.142v-1.9h-2.161Z" fill="#fff"/>
    <path id="Контур_15" data-name="Контур 15" d="M162.765,43.833H155.58v-12.1h7.185v2.624h-3.912v1.9h3.615v2.624h-3.615v2.285h3.912Z" fill="#fff"/>
    <path id="Контур_16" data-name="Контур 16" d="M176.419,43.833h-4.291l-4.421-8.527h-.075q.157,2.014.155,3.071v5.456h-2.9v-12.1h4.271l4.4,8.41h.044c-.078-1.22-.114-2.2-.114-2.941v-5.47h2.923Z" fill="#fff"/>
    <path id="Контур_17" data-name="Контур 17" d="M184.428,34.239a2.089,2.089,0,0,0-1.822.956,4.6,4.6,0,0,0-.653,2.638q0,3.494,2.658,3.494a5.425,5.425,0,0,0,1.557-.225,15.73,15.73,0,0,0,1.516-.536V43.33a8.444,8.444,0,0,1-3.429.67,5.432,5.432,0,0,1-4.2-1.59,6.534,6.534,0,0,1-1.463-4.594,7.328,7.328,0,0,1,.709-3.3,5.065,5.065,0,0,1,2.038-2.187,6.14,6.14,0,0,1,3.12-.767,8.589,8.589,0,0,1,3.752.853l-1,2.574a11.361,11.361,0,0,0-1.341-.528A4.669,4.669,0,0,0,184.428,34.239Z" fill="#fff"/>
    <path id="Контур_18" data-name="Контур 18" d="M194.366,36.218l2.089-4.486H200l-3.985,7.374V43.83H192.72V39.206l-3.985-7.474H192.3Z" fill="#fff"/>
  </g>
</svg>
