<?xml version="1.0" encoding="iso-8859-1"?>
<svg fill="#FFC750" height="800px" width="800px" version="1.1" id="Layer_1" xmlns="http://www.w3.org/2000/svg" xmlns:xlink="http://www.w3.org/1999/xlink"
	 viewBox="0 0 503.607 503.607" xml:space="preserve">
<g>
	<g>
		<path d="M495.212,201.443h-8.392V41.967c0-13.91-11.27-25.18-25.18-25.18H302.164V8.393c0-4.636-3.758-8.393-8.393-8.393h-83.934
			c-4.636,0-8.393,3.758-8.393,8.393v8.393H41.968c-13.91,0-25.18,11.27-25.18,25.18v159.48H8.395c-4.636,0-8.393,3.758-8.393,8.393
			v83.934c0,4.636,3.758,8.393,8.393,8.393h8.389v159.471c0,13.908,11.276,25.18,25.18,25.18h159.479v8.393
			c0,4.636,3.758,8.393,8.393,8.393h83.934c4.636,0,8.393-3.758,8.393-8.393v-8.39H461.64c13.908,0,25.18-11.276,25.18-25.18
			V302.164h8.392c4.636,0,8.393-3.758,8.393-8.393v-83.934C503.605,205.2,499.847,201.443,495.212,201.443z M155.439,273.808
			c-0.428-0.501-0.847-1.005-1.261-1.512c-0.093-0.113-0.187-0.227-0.28-0.34c-14.817-18.268-21.375-40.337-19.001-61.165
			c0-0.002,0-0.005,0-0.007c0.839-7.353,2.732-14.137,5.545-20.211c7.473-15.656,21.395-27.258,40.424-30.306
			c0.046-0.007,0.093-0.014,0.139-0.021c0.721-0.114,1.449-0.214,2.184-0.303c0.246-0.029,0.495-0.053,0.743-0.08
			c0.579-0.063,1.159-0.123,1.747-0.171c0.455-0.036,0.917-0.061,1.377-0.087c0.415-0.025,0.827-0.055,1.246-0.072
			c0.905-0.036,1.818-0.057,2.741-0.057c0.027,0,0.054,0.001,0.081,0.001c5.636,0.007,11.051,0.791,16.444,2.305c0,0,0,0,0.001,0
			c0.002,0.001,0.004,0.001,0.006,0.002c15.747,4.406,27.848,15.315,34.951,30.892c0.079,0.174,0.158,0.35,0.236,0.525
			c0.415,0.932,0.817,1.876,1.197,2.84c0.01,0.025,0.021,0.049,0.031,0.075c1.394,3.552,4.604,5.327,7.814,5.327
			c3.21,0,6.42-1.775,7.814-5.327c0.396-1.01,0.817-1.998,1.252-2.972c0.063-0.141,0.126-0.282,0.189-0.422
			c7.101-15.602,19.21-26.528,34.974-30.938c0.001,0,0.003-0.001,0.004-0.001c0.001,0,0.002,0,0.003-0.001
			c5.419-1.521,10.859-2.306,16.524-2.306c0.003,0,0.006,0,0.01,0c0.919,0,1.827,0.021,2.729,0.057
			c0.43,0.017,0.852,0.049,1.277,0.074c0.449,0.026,0.899,0.05,1.343,0.085c0.599,0.048,1.19,0.11,1.78,0.174
			c0.235,0.025,0.472,0.048,0.706,0.076c0.747,0.09,1.488,0.192,2.22,0.308c0.032,0.005,0.065,0.01,0.097,0.015
			c19.073,3.05,33.017,14.692,40.481,30.398c2.788,6.045,4.666,12.793,5.502,20.102c0.001,0.007,0,0.015,0.001,0.022
			c2.377,20.858-4.196,42.95-19.048,61.227c-0.041,0.051-0.083,0.101-0.125,0.152c-0.466,0.571-0.939,1.139-1.421,1.702
			c-0.024,0.028-0.05,0.057-0.074,0.085c-0.493,0.575-0.994,1.146-1.504,1.713c-2.332,2.596-6.206,6.748-11.469,12.303
			c-0.012,0.012-0.025,0.022-0.036,0.034c-10.869,11.476-26.856,28.076-47.264,49.123c-0.007,0.008-0.016,0.013-0.023,0.021
			c-12.593,12.985-27.506,28.304-35.942,36.948c-8.436-8.644-23.349-23.963-35.942-36.948c-0.008-0.008-0.016-0.013-0.024-0.021
			c-19.259-19.853-36.1-37.344-47.268-49.128c-0.026-0.027-0.054-0.05-0.08-0.077c-5.285-5.589-9.116-9.695-11.423-12.254
			c-0.354-0.393-0.697-0.791-1.043-1.188C155.829,274.255,155.631,274.033,155.439,273.808z M486.818,285.377H360.357
			c0.072-0.083,0.137-0.169,0.209-0.252c17.683-20.481,25.747-44.485,25.544-66.896h92.316h8.392V285.377z M461.64,33.574
			c4.639,0,8.393,3.754,8.393,8.393v8.393h-75.541c-4.636,0-8.393,3.758-8.393,8.393c0,4.636,3.758,8.393,8.393,8.393h75.541v16.787
			h-41.967c-4.636,0-8.393,3.758-8.393,8.393s3.758,8.393,8.393,8.393h41.967v100.721h-85.668
			c-6.495-31.833-30.74-57.132-68.163-58.675c-0.057-0.002-0.112-0.007-0.169-0.01c-1.141-0.045-2.292-0.069-3.457-0.07
			c-0.004,0-0.008,0-0.013,0c0,0,0,0,0,0s0,0,0,0c-3.562,0-7.028,0.227-10.399,0.656V33.574H461.64z M285.377,16.787v8.393v122.308
			c-13.854,5.259-25.299,14.655-33.574,27.281c-8.275-12.628-19.718-22.024-33.572-27.282V25.18c0-0.006-0.001-0.011-0.001-0.017
			v-8.377H285.377z M33.575,41.967c0-4.639,3.754-8.393,8.393-8.393h159.475v109.771c-3.368-0.429-6.831-0.655-10.39-0.656
			c-0.003,0-0.006,0-0.009,0c0,0,0,0-0.001,0c0,0-0.001,0-0.001,0c-1.17,0-2.327,0.025-3.472,0.07
			c-0.043,0.002-0.085,0.006-0.128,0.007c-37.446,1.526-61.705,26.832-68.203,58.677H33.575V41.967z M16.788,218.234h100.707
			c-0.201,22.393,7.85,46.378,25.506,66.848c0.084,0.098,0.161,0.198,0.246,0.296H25.177c-0.028,0-0.055,0.004-0.082,0.004h-8.307
			V218.234z M41.964,470.033c-4.634,0-8.393-3.758-8.393-8.393v-8.393h75.544c4.636,0,8.393-3.758,8.393-8.393
			c0-4.636-3.758-8.393-8.393-8.393H33.571v-16.787h41.971c4.636,0,8.393-3.758,8.393-8.393s-3.758-8.393-8.393-8.393H33.571
			V302.168h125.292c10.034,10.555,24.022,25.081,40.996,42.595c0.522,0.539,1.05,1.083,1.581,1.63v123.639H41.964z M285.377,486.82
			H218.23V363.684c12.594,12.952,24.103,24.753,27.587,28.298c1.686,1.715,3.925,2.545,6.15,2.502
			c2.115-0.041,4.217-0.87,5.82-2.499c0.975-0.991,2.892-2.951,5.456-5.578c5.378-5.508,13.498-13.842,22.134-22.724V478.43V486.82z
			 M470.033,461.643c0,4.634-3.758,8.393-8.393,8.393H302.164V346.396c0.531-0.548,1.059-1.093,1.582-1.632
			c16.974-17.515,30.963-32.041,40.997-42.596h125.29V461.643z"/>
	</g>
</g>
</svg>