<svg width="40" height="40" viewBox="0 0 40 40" fill="none" xmlns="http://www.w3.org/2000/svg">
<path d="M38.2549 27.8958C40.3059 29.7073 40.2018 32.2373 39.0461 34.0384C38.6089 34.7256 37.8905 35.6105 36.8806 36.6204C35.1627 38.3383 32.0394 39.546 29.7905 39.5043C23.0753 39.4002 18.5359 37.5991 10.6546 29.7177C2.77329 21.8364 0.972141 17.3075 0.868029 10.5818C0.836795 8.32259 2.03409 5.20962 3.75195 3.49177C4.76184 2.48187 5.6468 1.7635 6.33394 1.32622C8.1455 0.170573 10.6754 0.0664598 12.4766 2.11748C13.2991 3.05449 14.7358 4.97016 15.5479 6.07376C17.0159 8.06231 17.2449 10.8629 15.6104 12.9764C15.1627 13.5595 14.4756 14.3715 13.9238 15.017C13.372 15.6625 13.2678 16.5683 13.6531 17.3179C14.6734 19.3481 16.0164 21.1805 17.5989 22.7734C19.1814 24.3664 21.0242 25.699 23.0544 26.7193C23.804 27.0941 24.7202 27.0004 25.3553 26.4486C25.9904 25.8968 26.8129 25.2097 27.3959 24.762C29.5094 23.1274 32.2996 23.3565 34.2986 24.8244C35.4022 25.6261 37.3179 27.0629 38.2549 27.8958Z" fill="#18B4BB"/>
</svg>
