<svg width="156" height="140" viewBox="0 0 156 140" fill="none" xmlns="http://www.w3.org/2000/svg">
<path d="M78 0C121.078 0 156 34.9218 156 78C156 96.4209 149.613 113.349 138.935 126.694C134.599 123.664 128.053 120.393 119.077 117.156C113.64 115.195 104.177 109.546 102.556 108.673C102.135 108.429 101.649 108.286 101.127 108.286C99.9899 108.286 99.011 108.956 98.5547 109.92C94.0722 117.425 85.7619 139.247 79.9629 139.65C74.1639 139.245 65.854 117.424 61.3711 109.92C60.9151 108.955 59.9364 108.286 58.7988 108.286C58.2776 108.286 57.7906 108.429 57.3701 108.673C55.7485 109.546 46.285 115.196 40.8486 117.156C30.0184 121.061 22.725 125.013 18.585 128.536C6.99532 114.924 0 97.279 0 78C0 34.9218 34.9218 0 78 0ZM80.957 13.0117C80.9098 13.0117 80.8623 13.01 80.8145 13.0088V13.0059C80.7399 13.0058 80.6647 13 80.5889 13C80.5649 13 80.5422 13.001 80.5186 13.001C80.4949 13.001 80.4722 13 80.4482 13C80.3862 13 80.3241 13.0033 80.2617 13.0039C80.2003 13.0033 80.1372 13 80.0752 13C80.0518 13 80.0293 13.001 80.0059 13.001H79.9951C79.972 13.001 79.9495 13 79.9258 13C79.8641 13 79.8013 13.0033 79.7393 13.0039C79.6775 13.0033 79.6151 13 79.5527 13C79.5289 13 79.506 13.001 79.4824 13.001C79.4594 13.001 79.4364 13 79.4121 13C79.3367 13 79.2609 13.0059 79.1855 13.0059V13.0088C79.138 13.01 79.0911 13.0117 79.0439 13.0117C78.8763 13.0098 78.7072 13 78.5361 13C58.3917 13 41.7366 31.8517 42.4141 49.4961C8.24802 60.5773 21.8645 73.39 13.4844 92.5342C13.2679 92.9924 13.1436 93.5028 13.1436 94.043C13.1436 95.9956 14.7263 97.5781 16.6787 97.5781C17.0654 97.5781 17.4368 97.5139 17.7852 97.3994C43.2534 90.6923 42.6055 79.1713 47.0596 71.748C46.9619 73.943 46.9888 76.2473 47.165 78.6768C47.165 90.8975 62.6975 104.236 79.4355 104.236C79.5377 104.236 79.6368 104.228 79.7383 104.228C79.8256 104.228 79.9127 104.233 80 104.234C80.0872 104.232 80.1735 104.228 80.2607 104.228C80.3621 104.228 80.4621 104.236 80.5645 104.236C97.3022 104.236 112.835 90.8975 112.835 78.6768C113.011 76.2473 113.038 73.943 112.94 71.748C117.394 79.1716 116.746 90.6923 142.215 97.3994C142.563 97.5139 142.935 97.5781 143.321 97.5781C145.274 97.5781 146.856 95.9956 146.856 94.043C146.857 93.5024 146.733 92.9921 146.517 92.5342C138.137 73.39 151.753 60.5776 117.587 49.4961C118.264 31.8517 101.61 13.0001 81.4658 13C81.2946 13 81.1245 13.0098 80.957 13.0117Z" fill="#FFC22E"/>
</svg>
