<svg width="156" height="132" viewBox="0 0 156 132" fill="none" xmlns="http://www.w3.org/2000/svg">
<path d="M78 0C121.078 0 156 34.9218 156 78C156 98.4995 148.091 117.151 135.159 131.072C132.298 129.832 129.148 128.586 125.701 127.343C103.777 119.438 96.7725 112.767 96.7725 98.4873C96.7725 96.9122 96.999 95.7236 97.3857 94.7314C99.1065 90.3201 104.005 89.8297 106.403 77.0156C107.624 70.5026 113.536 76.9094 114.666 62.0439C114.666 56.1209 111.438 54.6465 111.438 54.6465C111.442 54.6251 113.08 45.8694 113.722 39.1309C114.519 30.7233 108.812 9 78.3838 9C78.2526 9.00001 78.1283 9.00698 78 9.00879C77.8706 9.00661 77.7469 9 77.6143 9C47.1861 9.00006 41.4811 30.7233 42.2773 39.1309C42.9183 45.8615 44.5527 54.6047 44.5605 54.6465C44.5395 54.6562 41.3331 56.14 41.333 62.0439C42.4648 76.9095 48.377 70.5021 49.5967 77.0156C51.9956 89.8298 56.8953 90.3201 58.6152 94.7314C59.0012 95.7233 59.2275 96.9122 59.2275 98.4873C59.2275 112.767 52.2213 119.438 30.2979 127.343C26.8508 128.586 23.7008 129.832 20.8398 131.072C7.90831 117.151 0 98.4993 0 78C0 34.9218 34.9218 0 78 0Z" fill="#FACC00"/>
</svg>
